<?xml version="1.0" encoding="UTF-8"?>
<!DOCTYPE svg PUBLIC "-//W3C//DTD SVG 1.1//EN" "http://www.w3.org/Graphics/SVG/1.1/DTD/svg11.dtd">
<svg xmlns="http://www.w3.org/2000/svg" version="1.1" width="128px" height="128px" style="shape-rendering:geometricPrecision; text-rendering:geometricPrecision; image-rendering:optimizeQuality; fill-rule:evenodd; clip-rule:evenodd" xmlns:xlink="http://www.w3.org/1999/xlink">
<g><path style="opacity:1" fill="#fb3986" d="M -0.5,-0.5 C 42.1667,-0.5 84.8333,-0.5 127.5,-0.5C 127.5,1.16667 127.5,2.83333 127.5,4.5C 122.919,3.39322 118.252,3.22656 113.5,4C 110.401,4.38743 107.734,5.5541 105.5,7.5C 105.158,8.33825 104.492,8.67158 103.5,8.5C 101.938,8.73286 100.605,9.39952 99.5,10.5C 94.8333,10.5 90.1667,10.5 85.5,10.5C 81.4565,9.72622 77.9565,8.05955 75,5.5C 73.5962,5.5093 72.4296,6.0093 71.5,7C 59.0488,7.07193 46.7154,8.2386 34.5,10.5C 22.8333,10.5 11.1667,10.5 -0.5,10.5C -0.5,6.83333 -0.5,3.16667 -0.5,-0.5 Z"/></g>
<g><path style="opacity:1" fill="#241114" d="M 127.5,4.5 C 127.5,4.83333 127.5,5.16667 127.5,5.5C 120.002,4.04956 112.669,4.71623 105.5,7.5C 107.734,5.5541 110.401,4.38743 113.5,4C 118.252,3.22656 122.919,3.39322 127.5,4.5 Z"/></g>
<g><path style="opacity:1" fill="#1f1015" d="M 85.5,10.5 C 86.2905,11.4013 87.2905,12.0679 88.5,12.5C 92.3438,14.922 96.0105,17.5887 99.5,20.5C 101.58,22.5732 103.246,24.9066 104.5,27.5C 101.036,24.5375 97.7025,21.3709 94.5,18C 83.3925,9.30426 71.0592,6.47093 57.5,9.5C 51.5958,9.32126 45.9291,9.98792 40.5,11.5C 35.5466,12.2808 30.7133,13.6141 26,15.5C 24.3164,15.3166 24.1498,14.6499 25.5,13.5C 27.2161,13.3713 28.8828,13.038 30.5,12.5C 31.9952,12.0113 33.3285,11.3446 34.5,10.5C 46.7154,8.2386 59.0488,7.07193 71.5,7C 72.4296,6.0093 73.5962,5.5093 75,5.5C 77.9565,8.05955 81.4565,9.72622 85.5,10.5 Z"/></g>
<g><path style="opacity:1" fill="#ebb1cf" d="M -0.5,11.5 C -0.5,11.1667 -0.5,10.8333 -0.5,10.5C 11.1667,10.5 22.8333,10.5 34.5,10.5C 33.3285,11.3446 31.9952,12.0113 30.5,12.5C 20.3468,11.5058 10.0135,11.1724 -0.5,11.5 Z"/></g>
<g><path style="opacity:1" fill="#4a4a5e" d="M 57.5,9.5 C 59.8568,9.33669 62.1902,9.50335 64.5,10C 62.3921,10.3599 60.3921,11.0266 58.5,12C 62.5834,11.8145 66.5834,10.9812 70.5,9.5C 73.9196,10.3744 77.253,11.541 80.5,13C 84.3333,16.8333 88.1667,20.6667 92,24.5C 93.6224,30.9252 91.6224,35.9252 86,39.5C 85.2086,40.745 84.7086,42.0783 84.5,43.5C 79.0683,40.5788 73.4017,38.2455 67.5,36.5C 62.5988,34.7545 57.5988,33.4211 52.5,32.5C 51.0484,31.6981 49.3817,31.1981 47.5,31C 40.8417,30.5004 34.175,30.3337 27.5,30.5C 31.3123,29.6762 35.3123,29.1762 39.5,29C 37.5,28.6667 35.5,28.3333 33.5,28C 36.2263,27.8184 38.8929,27.3184 41.5,26.5C 42.8333,25.5 42.8333,24.5 41.5,23.5C 42.2003,23.2129 42.8669,22.8795 43.5,22.5C 43.8333,22.5 44.1667,22.5 44.5,22.5C 45.8333,23.1667 47.1667,23.8333 48.5,24.5C 45.4813,24.9723 44.4813,26.4723 45.5,29C 47.5,29.5 49.5,30 51.5,30.5C 55.2912,29.0278 54.9578,27.8611 50.5,27C 52.3266,26.1007 53.66,24.7674 54.5,23C 54.2517,21.2509 53.2517,20.4176 51.5,20.5C 52.7065,19.1196 52.3731,17.9529 50.5,17C 51.6872,15.9805 52.6872,14.8139 53.5,13.5C 49.1616,12.7131 44.8283,12.0464 40.5,11.5C 45.9291,9.98792 51.5958,9.32126 57.5,9.5 Z"/></g>
<g><path style="opacity:1" fill="#e1adc6" d="M 85.5,10.5 C 90.1667,10.5 94.8333,10.5 99.5,10.5C 99.5,11.1667 99.1667,11.5 98.5,11.5C 94.9581,11.1872 91.6248,11.5206 88.5,12.5C 87.2905,12.0679 86.2905,11.4013 85.5,10.5 Z"/></g>
<g><path style="opacity:1" fill="#fbfbfb" d="M -0.5,11.5 C 10.0135,11.1724 20.3468,11.5058 30.5,12.5C 28.8828,13.038 27.2161,13.3713 25.5,13.5C 23.5659,14.1103 21.8993,15.1103 20.5,16.5C 19.2058,17.2899 18.0391,18.2899 17,19.5C 14.8333,23.8333 12.6667,28.1667 10.5,32.5C 8.00019,33.3589 5.66686,34.3589 3.5,35.5C 2.04125,35.4326 0.707917,35.7659 -0.5,36.5C -0.5,28.1667 -0.5,19.8333 -0.5,11.5 Z"/></g>
<g><path style="opacity:1" fill="#4b4c61" d="M 40.5,11.5 C 44.8283,12.0464 49.1616,12.7131 53.5,13.5C 52.6872,14.8139 51.6872,15.9805 50.5,17C 52.3731,17.9529 52.7065,19.1196 51.5,20.5C 50.421,21.7361 49.421,23.0694 48.5,24.5C 47.1667,23.8333 45.8333,23.1667 44.5,22.5C 45.9778,22.762 47.3112,22.4287 48.5,21.5C 47.6667,21.1667 46.8333,20.8333 46,20.5C 44.6244,20.6842 43.7911,21.3509 43.5,22.5C 42.8669,22.8795 42.2003,23.2129 41.5,23.5C 42.8333,24.5 42.8333,25.5 41.5,26.5C 38.8929,27.3184 36.2263,27.8184 33.5,28C 35.5,28.3333 37.5,28.6667 39.5,29C 35.3123,29.1762 31.3123,29.6762 27.5,30.5C 22.5665,30.7204 17.7331,31.387 13,32.5C 14.354,26.633 17.1873,21.4664 21.5,17C 21.2716,16.6012 20.9382,16.4346 20.5,16.5C 21.8993,15.1103 23.5659,14.1103 25.5,13.5C 24.1498,14.6499 24.3164,15.3166 26,15.5C 30.7133,13.6141 35.5466,12.2808 40.5,11.5 Z"/></g>
<g><path style="opacity:1" fill="#3b3839" d="M 103.5,8.5 C 101.873,10.6298 100.04,12.6298 98,14.5C 97.5304,13.4232 97.6971,12.4232 98.5,11.5C 99.1667,11.5 99.5,11.1667 99.5,10.5C 100.605,9.39952 101.938,8.73286 103.5,8.5 Z"/></g>
<g><path style="opacity:1" fill="#f5f5f3" d="M 127.5,5.5 C 127.5,5.83333 127.5,6.16667 127.5,6.5C 117.084,4.22661 108.751,7.22661 102.5,15.5C 100.75,16.6594 99.7497,18.326 99.5,20.5C 96.0105,17.5887 92.3438,14.922 88.5,12.5C 91.6248,11.5206 94.9581,11.1872 98.5,11.5C 97.6971,12.4232 97.5304,13.4232 98,14.5C 100.04,12.6298 101.873,10.6298 103.5,8.5C 104.492,8.67158 105.158,8.33825 105.5,7.5C 112.669,4.71623 120.002,4.04956 127.5,5.5 Z"/></g>
<g><path style="opacity:1" fill="#2a2423" d="M 127.5,10.5 C 127.5,11.1667 127.5,11.8333 127.5,12.5C 124.588,13.4289 121.921,14.7622 119.5,16.5C 121.412,13.5389 124.079,11.5389 127.5,10.5 Z"/></g>
<g><path style="opacity:1" fill="#f0f1f1" d="M 127.5,12.5 C 127.5,14.5 127.5,16.5 127.5,18.5C 124.998,17.2215 122.498,17.2215 120,18.5C 119.536,17.9056 119.369,17.2389 119.5,16.5C 121.921,14.7622 124.588,13.4289 127.5,12.5 Z"/></g>
<g><path style="opacity:1" fill="#fad381" d="M 127.5,6.5 C 127.5,7.83333 127.5,9.16667 127.5,10.5C 124.079,11.5389 121.412,13.5389 119.5,16.5C 118.5,17.1667 117.5,17.8333 116.5,18.5C 112.083,18.0417 108.75,19.7083 106.5,23.5C 104.321,21.1601 102.987,18.4934 102.5,15.5C 108.751,7.22661 117.084,4.22661 127.5,6.5 Z"/></g>
<g><path style="opacity:1" fill="#333048" d="M 57.5,9.5 C 71.0592,6.47093 83.3925,9.30426 94.5,18C 97.7025,21.3709 101.036,24.5375 104.5,27.5C 105.5,28.1667 106.5,28.8333 107.5,29.5C 108.5,31.1667 109.833,32.5 111.5,33.5C 112.596,36.0316 113.929,38.3649 115.5,40.5C 115.5,41.8333 115.5,43.1667 115.5,44.5C 114.432,51.1129 112.599,57.4462 110,63.5C 109.667,68.8333 109.333,74.1667 109,79.5C 108.501,73.8431 108.334,68.1764 108.5,62.5C 108.489,60.9826 107.823,59.8159 106.5,59C 102.929,56.5794 99.2625,54.4127 95.5,52.5C 93.5956,52.2624 92.2623,51.2624 91.5,49.5C 89.3529,47.2632 87.0196,45.2632 84.5,43.5C 84.7086,42.0783 85.2086,40.745 86,39.5C 91.6224,35.9252 93.6224,30.9252 92,24.5C 88.1667,20.6667 84.3333,16.8333 80.5,13C 77.253,11.541 73.9196,10.3744 70.5,9.5C 66.5834,10.9812 62.5834,11.8145 58.5,12C 60.3921,11.0266 62.3921,10.3599 64.5,10C 62.1902,9.50335 59.8568,9.33669 57.5,9.5 Z"/></g>
<g><path style="opacity:1" fill="#2e2b2b" d="M 119.5,16.5 C 119.369,17.2389 119.536,17.9056 120,18.5C 122.498,17.2215 124.998,17.2215 127.5,18.5C 127.5,18.8333 127.5,19.1667 127.5,19.5C 124.287,19.19 121.287,19.5233 118.5,20.5C 117.5,20.5 116.5,20.5 115.5,20.5C 115.833,19.8333 116.167,19.1667 116.5,18.5C 117.5,17.8333 118.5,17.1667 119.5,16.5 Z"/></g>
<g><path style="opacity:1" fill="#fdf9e6" d="M 118.5,20.5 C 121.287,19.5233 124.287,19.19 127.5,19.5C 127.5,20.1667 127.5,20.8333 127.5,21.5C 124.57,20.701 121.57,20.3677 118.5,20.5 Z"/></g>
<g><path style="opacity:1" fill="#fbfbfc" d="M 44.5,22.5 C 44.1667,22.5 43.8333,22.5 43.5,22.5C 43.7911,21.3509 44.6244,20.6842 46,20.5C 46.8333,20.8333 47.6667,21.1667 48.5,21.5C 47.3112,22.4287 45.9778,22.762 44.5,22.5 Z"/></g>
<g><path style="opacity:1" fill="#e6e6e8" d="M 51.5,20.5 C 53.2517,20.4176 54.2517,21.2509 54.5,23C 53.66,24.7674 52.3266,26.1007 50.5,27C 54.9578,27.8611 55.2912,29.0278 51.5,30.5C 49.5,30 47.5,29.5 45.5,29C 44.4813,26.4723 45.4813,24.9723 48.5,24.5C 49.421,23.0694 50.421,21.7361 51.5,20.5 Z"/></g>
<g><path style="opacity:1" fill="#f5a889" d="M 102.5,15.5 C 102.987,18.4934 104.321,21.1601 106.5,23.5C 108.75,19.7083 112.083,18.0417 116.5,18.5C 116.167,19.1667 115.833,19.8333 115.5,20.5C 110.791,21.5484 108.125,24.5484 107.5,29.5C 106.5,28.8333 105.5,28.1667 104.5,27.5C 103.246,24.9066 101.58,22.5732 99.5,20.5C 99.7497,18.326 100.75,16.6594 102.5,15.5 Z"/></g>
<g><path style="opacity:1" fill="#fcd37f" d="M 115.5,20.5 C 116.5,20.5 117.5,20.5 118.5,20.5C 121.57,20.3677 124.57,20.701 127.5,21.5C 127.5,23.8333 127.5,26.1667 127.5,28.5C 123.658,28.8297 119.991,29.6631 116.5,31C 118.058,31.21 119.391,31.71 120.5,32.5C 119.472,32.9258 118.139,32.9258 116.5,32.5C 114.585,32.2155 112.919,32.5489 111.5,33.5C 109.833,32.5 108.5,31.1667 107.5,29.5C 108.125,24.5484 110.791,21.5484 115.5,20.5 Z"/></g>
<g><path style="opacity:1" fill="#312620" d="M 127.5,28.5 C 127.5,29.1667 127.5,29.8333 127.5,30.5C 125.473,30.3379 123.473,30.5045 121.5,31C 122.416,31.2784 123.082,31.7784 123.5,32.5C 122.5,32.5 121.5,32.5 120.5,32.5C 119.391,31.71 118.058,31.21 116.5,31C 119.991,29.6631 123.658,28.8297 127.5,28.5 Z"/></g>
<g><path style="opacity:1" fill="#e9e8e8" d="M 127.5,30.5 C 127.5,31.5 127.5,32.5 127.5,33.5C 126.292,32.7659 124.959,32.4326 123.5,32.5C 123.082,31.7784 122.416,31.2784 121.5,31C 123.473,30.5045 125.473,30.3379 127.5,30.5 Z"/></g>
<g><path style="opacity:1" fill="#160f11" d="M 20.5,16.5 C 20.9382,16.4346 21.2716,16.6012 21.5,17C 17.1873,21.4664 14.354,26.633 13,32.5C 17.7331,31.387 22.5665,30.7204 27.5,30.5C 34.175,30.3337 40.8417,30.5004 47.5,31C 49.3817,31.1981 51.0484,31.6981 52.5,32.5C 48.1667,32.5 43.8333,32.5 39.5,32.5C 34.3497,31.3493 29.0164,31.1826 23.5,32C 16.8103,33.064 10.1436,34.2307 3.5,35.5C 5.66686,34.3589 8.00019,33.3589 10.5,32.5C 12.6667,28.1667 14.8333,23.8333 17,19.5C 18.0391,18.2899 19.2058,17.2899 20.5,16.5 Z"/></g>
<g><path style="opacity:1" fill="#dd764a" d="M 39.5,32.5 C 34.8215,32.3342 30.1548,32.5008 25.5,33C 26.4158,33.2784 27.0825,33.7784 27.5,34.5C 19.5679,34.6524 11.7345,35.6524 4,37.5C 3.16667,37.3333 2.33333,37.1667 1.5,37C 2.4158,36.7216 3.08247,36.2216 3.5,35.5C 10.1436,34.2307 16.8103,33.064 23.5,32C 29.0164,31.1826 34.3497,31.3493 39.5,32.5 Z"/></g>
<g><path style="opacity:1" fill="#222121" d="M 123.5,32.5 C 124.959,32.4326 126.292,32.7659 127.5,33.5C 127.5,33.8333 127.5,34.1667 127.5,34.5C 125.847,34.3404 124.514,33.6737 123.5,32.5 Z"/></g>
<g><path style="opacity:1" fill="#f9f1e6" d="M 116.5,32.5 C 118.139,32.9258 119.472,32.9258 120.5,32.5C 121.5,32.5 122.5,32.5 123.5,32.5C 124.514,33.6737 125.847,34.3404 127.5,34.5C 127.5,35.8333 127.5,37.1667 127.5,38.5C 126.167,38.1667 124.833,37.8333 123.5,37.5C 121.343,35.5879 119.009,33.9213 116.5,32.5 Z"/></g>
<g><path style="opacity:1" fill="#efa887" d="M 116.5,32.5 C 119.009,33.9213 121.343,35.5879 123.5,37.5C 120.523,37.9016 117.857,38.9016 115.5,40.5C 113.929,38.3649 112.596,36.0316 111.5,33.5C 112.919,32.5489 114.585,32.2155 116.5,32.5 Z"/></g>
<g><path style="opacity:1" fill="#f2763a" d="M 39.5,32.5 C 43.8333,32.5 48.1667,32.5 52.5,32.5C 57.5988,33.4211 62.5988,34.7545 67.5,36.5C 70.52,38.6767 73.8533,40.3434 77.5,41.5C 77.5,42.1667 77.1667,42.5 76.5,42.5C 70.1796,41.4803 67.8463,43.8136 69.5,49.5C 69.7329,51.0618 70.3995,52.3951 71.5,53.5C 69.5648,52.8505 67.5648,52.5172 65.5,52.5C 61.326,49.9123 56.9926,47.579 52.5,45.5C 45.2044,39.3495 36.8711,35.6829 27.5,34.5C 27.0825,33.7784 26.4158,33.2784 25.5,33C 30.1548,32.5008 34.8215,32.3342 39.5,32.5 Z"/></g>
<g><path style="opacity:1" fill="#a94f2c" d="M -0.5,64.5 C -0.5,56.1667 -0.5,47.8333 -0.5,39.5C 4.91157,39.2092 10.2449,38.3759 15.5,37C 21.1667,36.3333 26.8333,36.3333 32.5,37C 17.9959,40.8372 7.82927,49.6705 2,63.5C 1.32924,64.2524 0.495904,64.5858 -0.5,64.5 Z"/></g>
<g><path style="opacity:1" fill="#1b0e10" d="M 67.5,36.5 C 73.4017,38.2455 79.0683,40.5788 84.5,43.5C 87.0196,45.2632 89.3529,47.2632 91.5,49.5C 86.8607,46.8452 82.194,44.1785 77.5,41.5C 73.8533,40.3434 70.52,38.6767 67.5,36.5 Z"/></g>
<g><path style="opacity:1" fill="#fdd47f" d="M 123.5,37.5 C 124.833,37.8333 126.167,38.1667 127.5,38.5C 127.5,44.1667 127.5,49.8333 127.5,55.5C 125.416,52.2348 123.083,49.0681 120.5,46C 118.975,44.9914 117.308,44.4914 115.5,44.5C 115.5,43.1667 115.5,41.8333 115.5,40.5C 117.857,38.9016 120.523,37.9016 123.5,37.5 Z"/></g>
<g><path style="opacity:1" fill="#c2c861" d="M 76.5,42.5 C 81.0501,43.6861 82.3834,46.3528 80.5,50.5C 80.8719,47.9783 80.0386,45.9783 78,44.5C 75.9592,45.4231 73.7925,45.7564 71.5,45.5C 70.8333,46.8333 70.1667,48.1667 69.5,49.5C 67.8463,43.8136 70.1796,41.4803 76.5,42.5 Z"/></g>
<g><path style="opacity:1" fill="#f59b90" d="M 52.5,45.5 C 61.494,53.997 72.1607,58.497 84.5,59C 89.0987,57.3479 93.7654,56.3479 98.5,56C 106.258,58.6679 108.591,63.8346 105.5,71.5C 104.094,71.9731 103.427,72.9731 103.5,74.5C 101.5,75.8333 99.8333,77.5 98.5,79.5C 97.1816,76.4355 97.1816,73.2688 98.5,70C 97.9011,68.3775 97.2344,66.8775 96.5,65.5C 95.8333,64.5 95.1667,63.5 94.5,62.5C 94.5,61.5 94.5,60.5 94.5,59.5C 92.5853,59.2155 90.9187,59.5489 89.5,60.5C 89.1667,60.5 88.8333,60.5 88.5,60.5C 85.3112,60.8583 82.3112,61.525 79.5,62.5C 78.8333,66.8333 78.1667,71.1667 77.5,75.5C 76.1667,73.8333 74.8333,72.1667 73.5,70.5C 74.6491,70.2089 75.3158,69.3756 75.5,68C 76.0767,65.863 76.41,63.6963 76.5,61.5C 72.8548,60.3484 69.1882,59.1818 65.5,58C 63.2021,55.0316 60.5355,53.5316 57.5,53.5C 56.8333,52.8333 56.1667,52.1667 55.5,51.5C 50.8602,50.6027 46.1935,50.4361 41.5,51C 36.0625,52.2241 30.7292,53.7241 25.5,55.5C 24.9969,50.5 24.6636,50.8333 24.5,56.5C 19.5759,58.7668 14.9092,61.4335 10.5,64.5C 10.5118,52.0064 16.5118,44.5064 28.5,42C 27.5494,42.7175 27.3828,43.5509 28,44.5C 30.4455,41.3605 33.6121,39.3605 37.5,38.5C 42.6677,40.5853 47.6677,42.9186 52.5,45.5 Z"/></g>
<g><path style="opacity:1" fill="#6c8047" d="M 80.5,50.5 C 80.0269,51.9063 79.0269,52.573 77.5,52.5C 74.3855,52.6061 71.7188,51.6061 69.5,49.5C 70.1667,48.1667 70.8333,46.8333 71.5,45.5C 73.7925,45.7564 75.9592,45.4231 78,44.5C 80.0386,45.9783 80.8719,47.9783 80.5,50.5 Z"/></g>
<g><path style="opacity:1" fill="#be5c30" d="M 77.5,41.5 C 82.194,44.1785 86.8607,46.8452 91.5,49.5C 92.2623,51.2624 93.5956,52.2624 95.5,52.5C 95.5299,53.4972 95.0299,54.1639 94,54.5C 84.0317,58.9708 74.5317,58.3041 65.5,52.5C 67.5648,52.5172 69.5648,52.8505 71.5,53.5C 73.7354,53.7947 75.7354,53.4614 77.5,52.5C 79.0269,52.573 80.0269,51.9063 80.5,50.5C 82.3834,46.3528 81.0501,43.6861 76.5,42.5C 77.1667,42.5 77.5,42.1667 77.5,41.5 Z"/></g>
<g><path style="opacity:1" fill="#d8af5c" d="M 69.5,49.5 C 71.7188,51.6061 74.3855,52.6061 77.5,52.5C 75.7354,53.4614 73.7354,53.7947 71.5,53.5C 70.3995,52.3951 69.7329,51.0618 69.5,49.5 Z"/></g>
<g><path style="opacity:1" fill="#fbd381" d="M 55.5,51.5 C 55.5,54.5 55.5,57.5 55.5,60.5C 54.5,60.5 53.5,60.5 52.5,60.5C 53.3029,59.5768 53.4696,58.5768 53,57.5C 51.3343,60.3312 49.1676,62.6645 46.5,64.5C 44.3718,63.3709 42.0385,63.2042 39.5,64C 38.6198,65.3561 38.2865,66.8561 38.5,68.5C 44.1424,67.3715 49.8091,66.3715 55.5,65.5C 55.0796,71.8626 54.4129,78.196 53.5,84.5C 51.4352,84.4828 49.4352,84.1495 47.5,83.5C 47.0269,82.0937 46.0269,81.427 44.5,81.5C 44.1667,81.5 43.8333,81.5 43.5,81.5C 40.097,80.9271 37.097,79.5938 34.5,77.5C 33.8333,76.8333 33.1667,76.1667 32.5,75.5C 30.5989,74.065 30.2655,72.3983 31.5,70.5C 31.8333,70.5 32.1667,70.5 32.5,70.5C 33.7079,69.7659 35.0413,69.4326 36.5,69.5C 36.5,68.1667 36.5,66.8333 36.5,65.5C 33.7938,65.5751 31.1272,65.9084 28.5,66.5C 28.2927,63.7594 27.2927,61.4261 25.5,59.5C 25.5,58.1667 25.5,56.8333 25.5,55.5C 30.7292,53.7241 36.0625,52.2241 41.5,51C 46.1935,50.4361 50.8602,50.6027 55.5,51.5 Z"/></g>
<g><path style="opacity:1" fill="#261312" d="M 52.5,45.5 C 56.9926,47.579 61.326,49.9123 65.5,52.5C 74.5317,58.3041 84.0317,58.9708 94,54.5C 95.0299,54.1639 95.5299,53.4972 95.5,52.5C 99.2625,54.4127 102.929,56.5794 106.5,59C 107.823,59.8159 108.489,60.9826 108.5,62.5C 107.954,65.6467 106.954,68.6467 105.5,71.5C 108.591,63.8346 106.258,58.6679 98.5,56C 93.7654,56.3479 89.0987,57.3479 84.5,59C 72.1607,58.497 61.494,53.997 52.5,45.5 Z"/></g>
<g><path style="opacity:1" fill="#f5d287" d="M 73.5,70.5 C 70.5306,68.2012 67.5306,66.2012 64.5,64.5C 66.604,64.7989 68.604,64.4656 70.5,63.5C 70.0233,62.5224 69.3567,61.6891 68.5,61C 66.1902,60.5034 63.8568,60.3367 61.5,60.5C 59.412,58.6644 58.0787,56.3311 57.5,53.5C 60.5355,53.5316 63.2021,55.0316 65.5,58C 69.1882,59.1818 72.8548,60.3484 76.5,61.5C 76.41,63.6963 76.0767,65.863 75.5,68C 75.3158,69.3756 74.6491,70.2089 73.5,70.5 Z"/></g>
<g><path style="opacity:1" fill="#251514" d="M 27.5,34.5 C 36.8711,35.6829 45.2044,39.3495 52.5,45.5C 47.6677,42.9186 42.6677,40.5853 37.5,38.5C 33.6121,39.3605 30.4455,41.3605 28,44.5C 27.3828,43.5509 27.5494,42.7175 28.5,42C 16.5118,44.5064 10.5118,52.0064 10.5,64.5C 9.21335,68.0649 9.21335,71.7316 10.5,75.5C 11.1667,77.5 11.8333,79.5 12.5,81.5C 12.1667,81.5 11.8333,81.5 11.5,81.5C 10.7368,79.6316 9.73685,77.9649 8.5,76.5C 8.5,73.5 8.5,70.5 8.5,67.5C 8.90211,62.0086 9.73544,56.6753 11,51.5C 6.28482,57.0515 3.11815,63.3848 1.5,70.5C 1.07332,73.0098 0.406658,75.3432 -0.5,77.5C -0.5,75.5 -0.5,73.5 -0.5,71.5C 0.434327,70.2275 1.10099,68.7275 1.5,67C 1.16389,65.9701 0.497222,65.4701 -0.5,65.5C -0.5,65.1667 -0.5,64.8333 -0.5,64.5C 0.495904,64.5858 1.32924,64.2524 2,63.5C 7.82927,49.6705 17.9959,40.8372 32.5,37C 26.8333,36.3333 21.1667,36.3333 15.5,37C 10.2449,38.3759 4.91157,39.2092 -0.5,39.5C -0.5,38.5 -0.5,37.5 -0.5,36.5C 0.707917,35.7659 2.04125,35.4326 3.5,35.5C 3.08247,36.2216 2.4158,36.7216 1.5,37C 2.33333,37.1667 3.16667,37.3333 4,37.5C 11.7345,35.6524 19.5679,34.6524 27.5,34.5 Z"/></g>
<g><path style="opacity:1" fill="#fa9c90" d="M 115.5,44.5 C 117.308,44.4914 118.975,44.9914 120.5,46C 123.083,49.0681 125.416,52.2348 127.5,55.5C 127.5,58.1667 127.5,60.8333 127.5,63.5C 126.518,62.8592 125.518,62.1925 124.5,61.5C 124.167,61.8333 123.833,62.1667 123.5,62.5C 125.973,69.6169 126.806,76.9503 126,84.5C 124.152,86.9529 121.652,87.9529 118.5,87.5C 116.993,93.5128 114.66,99.1795 111.5,104.5C 110.026,105.436 109.026,106.77 108.5,108.5C 105.342,111.059 104.009,110.059 104.5,105.5C 104.334,100.156 104.501,94.8229 105,89.5C 105.151,86.8807 105.985,84.5473 107.5,82.5C 106.426,81.9202 105.426,82.4202 104.5,84C 101.386,85.9309 98.0527,86.5976 94.5,86C 95.8613,84.4157 96.528,82.5824 96.5,80.5C 97.4916,80.6716 98.1583,80.3382 98.5,79.5C 101.167,78.8333 102.833,77.1667 103.5,74.5C 104.906,74.0269 105.573,73.0269 105.5,71.5C 106.954,68.6467 107.954,65.6467 108.5,62.5C 108.334,68.1764 108.501,73.8431 109,79.5C 109.333,74.1667 109.667,68.8333 110,63.5C 112.599,57.4462 114.432,51.1129 115.5,44.5 Z"/></g>
<g><path style="opacity:1" fill="#27211c" d="M 52.5,60.5 C 51.3747,62.1288 50.0414,63.6288 48.5,65C 46.6493,65.7034 45.9826,65.5368 46.5,64.5C 49.1676,62.6645 51.3343,60.3312 53,57.5C 53.4696,58.5768 53.3029,59.5768 52.5,60.5 Z"/></g>
<g><path style="opacity:1" fill="#faf8f0" d="M 61.5,60.5 C 63.8568,60.3367 66.1902,60.5034 68.5,61C 69.3567,61.6891 70.0233,62.5224 70.5,63.5C 68.604,64.4656 66.604,64.7989 64.5,64.5C 62.7376,63.7377 61.7376,62.4044 61.5,60.5 Z"/></g>
<g><path style="opacity:1" fill="#f9d381" d="M 24.5,56.5 C 24.665,59.8499 24.4983,63.1832 24,66.5C 23,65.5 22,64.5 21,63.5C 20.8333,63.8333 20.6667,64.1667 20.5,64.5C 21.5244,65.8518 22.5244,67.1851 23.5,68.5C 21.1849,69.5844 19.3516,71.251 18,73.5C 17.2753,72.9415 16.4419,72.6082 15.5,72.5C 14.0104,73.8397 12.3437,74.8397 10.5,75.5C 9.21335,71.7316 9.21335,68.0649 10.5,64.5C 14.9092,61.4335 19.5759,58.7668 24.5,56.5 Z"/></g>
<g><path style="opacity:1" fill="#f49e95" d="M 8.5,67.5 C 6.24595,68.4151 4.24595,69.7484 2.5,71.5C 2.5,70.8333 2.16667,70.5 1.5,70.5C 3.11815,63.3848 6.28482,57.0515 11,51.5C 9.73544,56.6753 8.90211,62.0086 8.5,67.5 Z"/></g>
<g><path style="opacity:1" fill="#faf8ed" d="M 52.5,60.5 C 53.5,60.5 54.5,60.5 55.5,60.5C 55.5,62.1667 55.5,63.8333 55.5,65.5C 49.8091,66.3715 44.1424,67.3715 38.5,68.5C 38.2865,66.8561 38.6198,65.3561 39.5,64C 42.0385,63.2042 44.3718,63.3709 46.5,64.5C 45.9826,65.5368 46.6493,65.7034 48.5,65C 50.0414,63.6288 51.3747,62.1288 52.5,60.5 Z"/></g>
<g><path style="opacity:1" fill="#f4f0e4" d="M 25.5,59.5 C 27.2927,61.4261 28.2927,63.7594 28.5,66.5C 31.1272,65.9084 33.7938,65.5751 36.5,65.5C 36.5,66.8333 36.5,68.1667 36.5,69.5C 35.0413,69.4326 33.7079,69.7659 32.5,70.5C 30.7857,69.2616 28.7857,68.595 26.5,68.5C 25.8413,65.5448 25.5079,62.5448 25.5,59.5 Z"/></g>
<g><path style="opacity:1" fill="#eff0ef" d="M -0.5,65.5 C 0.497222,65.4701 1.16389,65.9701 1.5,67C 1.10099,68.7275 0.434327,70.2275 -0.5,71.5C -0.5,69.5 -0.5,67.5 -0.5,65.5 Z"/></g>
<g><path style="opacity:1" fill="#916f34" d="M 88.5,60.5 C 88.8333,60.5 89.1667,60.5 89.5,60.5C 91.0217,66.0475 91.6884,71.7141 91.5,77.5C 90.6618,77.1583 90.3284,76.4916 90.5,75.5C 90.3512,70.4246 89.6845,65.4246 88.5,60.5 Z"/></g>
<g><path style="opacity:1" fill="#926960" d="M 79.5,62.5 C 79.5,63.1667 79.5,63.8333 79.5,64.5C 80.7663,68.5323 80.7663,72.5323 79.5,76.5C 78.5084,76.6716 77.8417,76.3382 77.5,75.5C 78.1667,71.1667 78.8333,66.8333 79.5,62.5 Z"/></g>
<g><path style="opacity:1" fill="#fadb95" d="M 94.5,62.5 C 95.0742,68.4836 95.4075,74.4836 95.5,80.5C 94.6916,83.4502 93.3582,86.1169 91.5,88.5C 91.1667,88.5 90.8333,88.5 90.5,88.5C 91.2436,84.8815 91.577,81.2148 91.5,77.5C 91.6884,71.7141 91.0217,66.0475 89.5,60.5C 90.9187,59.5489 92.5853,59.2155 94.5,59.5C 94.5,60.5 94.5,61.5 94.5,62.5 Z"/></g>
<g><path style="opacity:1" fill="#f0f0ea" d="M 31.5,70.5 C 30.2655,72.3983 30.5989,74.065 32.5,75.5C 31.0413,75.5674 29.7079,75.2341 28.5,74.5C 28.6716,73.5084 28.3382,72.8417 27.5,72.5C 28.1834,70.8235 29.5168,70.1568 31.5,70.5 Z"/></g>
<g><path style="opacity:1" fill="#fbd582" d="M 88.5,60.5 C 89.6845,65.4246 90.3512,70.4246 90.5,75.5C 89.6746,78.3718 88.8412,81.3718 88,84.5C 85.9552,88.0187 83.7885,91.3521 81.5,94.5C 81.5,94.8333 81.5,95.1667 81.5,95.5C 79.1944,95.9926 76.861,96.3259 74.5,96.5C 72.5853,96.7845 70.9187,96.4511 69.5,95.5C 72.762,90.4025 76.9287,86.0692 82,82.5C 82.4828,81.552 82.6495,80.552 82.5,79.5C 82.6653,75.8183 82.4986,72.1516 82,68.5C 81.7996,66.6803 80.9663,65.347 79.5,64.5C 79.5,63.8333 79.5,63.1667 79.5,62.5C 82.3112,61.525 85.3112,60.8583 88.5,60.5 Z"/></g>
<g><path style="opacity:1" fill="#511f1c" d="M 105.5,71.5 C 105.573,73.0269 104.906,74.0269 103.5,74.5C 103.427,72.9731 104.094,71.9731 105.5,71.5 Z"/></g>
<g><path style="opacity:1" fill="#fbf8eb" d="M 79.5,64.5 C 80.9663,65.347 81.7996,66.6803 82,68.5C 82.4986,72.1516 82.6653,75.8183 82.5,79.5C 81.5,79.5 80.5,79.5 79.5,79.5C 79.5,78.5 79.5,77.5 79.5,76.5C 80.7663,72.5323 80.7663,68.5323 79.5,64.5 Z"/></g>
<g><path style="opacity:1" fill="#836560" d="M 96.5,65.5 C 97.2344,66.8775 97.9011,68.3775 98.5,70C 97.1816,73.2688 97.1816,76.4355 98.5,79.5C 98.1583,80.3382 97.4916,80.6716 96.5,80.5C 96.5,75.5 96.5,70.5 96.5,65.5 Z"/></g>
<g><path style="opacity:1" fill="#c18e84" d="M 27.5,72.5 C 28.3382,72.8417 28.6716,73.5084 28.5,74.5C 28.5852,75.9953 27.9185,76.9953 26.5,77.5C 25.3526,75.2351 25.1859,72.9018 26,70.5C 26.2784,71.4158 26.7784,72.0825 27.5,72.5 Z"/></g>
<g><path style="opacity:1" fill="#f8d686" d="M 24.5,74.5 C 24.7845,76.4147 24.4511,78.0813 23.5,79.5C 22.5084,79.6716 21.8417,79.3382 21.5,78.5C 20.9094,77.8485 20.2427,77.1818 19.5,76.5C 21.0217,75.438 22.6883,74.7713 24.5,74.5 Z"/></g>
<g><path style="opacity:1" fill="#763937" d="M 103.5,74.5 C 102.833,77.1667 101.167,78.8333 98.5,79.5C 99.8333,77.5 101.5,75.8333 103.5,74.5 Z"/></g>
<g><path style="opacity:1" fill="#f9f6ec" d="M 94.5,62.5 C 95.1667,63.5 95.8333,64.5 96.5,65.5C 96.5,70.5 96.5,75.5 96.5,80.5C 96.1667,80.5 95.8333,80.5 95.5,80.5C 95.4075,74.4836 95.0742,68.4836 94.5,62.5 Z"/></g>
<g><path style="opacity:1" fill="#f6eacc" d="M 23.5,68.5 C 24.4614,70.2646 24.7947,72.2646 24.5,74.5C 22.6883,74.7713 21.0217,75.438 19.5,76.5C 20.2427,77.1818 20.9094,77.8485 21.5,78.5C 20.5,78.5 19.5,78.5 18.5,78.5C 17.5,78.5 16.5,78.5 15.5,78.5C 15.5,79.8333 15.5,81.1667 15.5,82.5C 14.391,82.4431 13.391,82.1098 12.5,81.5C 11.8333,79.5 11.1667,77.5 10.5,75.5C 12.3437,74.8397 14.0104,73.8397 15.5,72.5C 16.4419,72.6082 17.2753,72.9415 18,73.5C 19.3516,71.251 21.1849,69.5844 23.5,68.5 Z"/></g>
<g><path style="opacity:1" fill="#f4f1e6" d="M 8.5,76.5 C 9.73685,77.9649 10.7368,79.6316 11.5,81.5C 6.31503,82.6578 5.31503,80.9911 8.5,76.5 Z"/></g>
<g><path style="opacity:1" fill="#f5eddd" d="M 34.5,77.5 C 37.097,79.5938 40.097,80.9271 43.5,81.5C 42.4479,83.256 40.7812,83.9227 38.5,83.5C 36.3533,81.5305 34.02,79.6971 31.5,78C 32.448,77.5172 33.448,77.3505 34.5,77.5 Z"/></g>
<g><path style="opacity:1" fill="#221817" d="M 55.5,51.5 C 56.1667,52.1667 56.8333,52.8333 57.5,53.5C 58.0787,56.3311 59.412,58.6644 61.5,60.5C 61.7376,62.4044 62.7376,63.7377 64.5,64.5C 67.5306,66.2012 70.5306,68.2012 73.5,70.5C 74.8333,72.1667 76.1667,73.8333 77.5,75.5C 77.8417,76.3382 78.5084,76.6716 79.5,76.5C 79.5,77.5 79.5,78.5 79.5,79.5C 80.5,79.5 81.5,79.5 82.5,79.5C 82.6495,80.552 82.4828,81.552 82,82.5C 76.9287,86.0692 72.762,90.4025 69.5,95.5C 69.0618,95.5654 68.7284,95.3988 68.5,95C 70.1412,93.871 71.1412,92.371 71.5,90.5C 73.1921,88.7952 74.5254,86.7952 75.5,84.5C 76.2453,78.3262 73.5787,73.8262 67.5,71C 65.1902,70.5034 62.8568,70.3367 60.5,70.5C 62.631,69.6862 64.9644,69.1862 67.5,69C 64.5346,66.9109 61.7012,67.0775 59,69.5C 57.872,67.6547 57.372,65.6547 57.5,63.5C 58.8381,65.1128 60.5048,65.6128 62.5,65C 60.5421,62.2518 58.7088,59.4185 57,56.5C 56.5034,58.8098 56.3367,61.1432 56.5,63.5C 56.3011,66.941 56.8011,70.2744 58,73.5C 59.3561,72.6198 60.8561,72.2865 62.5,72.5C 66.2736,73.9382 68.6069,76.6049 69.5,80.5C 67.7341,78.2294 65.7341,76.0627 63.5,74C 62.1667,73.3333 60.8333,73.3333 59.5,74C 58.0015,76.4168 57.3349,79.0835 57.5,82C 57.5056,84.0326 57.8389,85.866 58.5,87.5C 58.5,88.5 58.5,89.5 58.5,90.5C 57.0687,89.2196 56.4021,87.5529 56.5,85.5C 56.6621,83.4727 56.4955,81.4727 56,79.5C 55.6264,81.4913 54.793,83.158 53.5,84.5C 54.4129,78.196 55.0796,71.8626 55.5,65.5C 55.5,63.8333 55.5,62.1667 55.5,60.5C 55.5,57.5 55.5,54.5 55.5,51.5 Z"/></g>
<g><path style="opacity:1" fill="#737492" d="M 69.5,80.5 C 69.8333,80.5 70.1667,80.5 70.5,80.5C 70.189,81.4778 69.5223,82.1445 68.5,82.5C 62.9559,80.0661 59.6226,81.7328 58.5,87.5C 57.8389,85.866 57.5056,84.0326 57.5,82C 57.3349,79.0835 58.0015,76.4168 59.5,74C 60.8333,73.3333 62.1667,73.3333 63.5,74C 65.7341,76.0627 67.7341,78.2294 69.5,80.5 Z"/></g>
<g><path style="opacity:1" fill="#e2c0c1" d="M 60.5,70.5 C 62.8568,70.3367 65.1902,70.5034 67.5,71C 73.5787,73.8262 76.2453,78.3262 75.5,84.5C 75.3731,80.67 73.7064,79.3367 70.5,80.5C 70.1667,80.5 69.8333,80.5 69.5,80.5C 68.6069,76.6049 66.2736,73.9382 62.5,72.5C 61.8333,71.8333 61.1667,71.1667 60.5,70.5 Z"/></g>
<g><path style="opacity:1" fill="#613938" d="M 56.5,63.5 C 56.8333,63.5 57.1667,63.5 57.5,63.5C 57.372,65.6547 57.872,67.6547 59,69.5C 61.7012,67.0775 64.5346,66.9109 67.5,69C 64.9644,69.1862 62.631,69.6862 60.5,70.5C 61.1667,71.1667 61.8333,71.8333 62.5,72.5C 60.8561,72.2865 59.3561,72.6198 58,73.5C 56.8011,70.2744 56.3011,66.941 56.5,63.5 Z"/></g>
<g><path style="opacity:1" fill="#e6968e" d="M 57.5,63.5 C 57.1667,63.5 56.8333,63.5 56.5,63.5C 56.3367,61.1432 56.5034,58.8098 57,56.5C 58.7088,59.4185 60.5421,62.2518 62.5,65C 60.5048,65.6128 58.8381,65.1128 57.5,63.5 Z"/></g>
<g><path style="opacity:1" fill="#f8da93" d="M 18.5,78.5 C 19.2122,80.9279 20.2122,83.2612 21.5,85.5C 20.675,86.3857 19.675,86.719 18.5,86.5C 17.5,85.1667 16.5,83.8333 15.5,82.5C 15.5,81.1667 15.5,79.8333 15.5,78.5C 16.5,78.5 17.5,78.5 18.5,78.5 Z"/></g>
<g><path style="opacity:1" fill="#341f1f" d="M 25.5,55.5 C 25.5,56.8333 25.5,58.1667 25.5,59.5C 25.5079,62.5448 25.8413,65.5448 26.5,68.5C 28.7857,68.595 30.7857,69.2616 32.5,70.5C 32.1667,70.5 31.8333,70.5 31.5,70.5C 29.5168,70.1568 28.1834,70.8235 27.5,72.5C 26.7784,72.0825 26.2784,71.4158 26,70.5C 25.1859,72.9018 25.3526,75.2351 26.5,77.5C 27.9185,76.9953 28.5852,75.9953 28.5,74.5C 29.7079,75.2341 31.0413,75.5674 32.5,75.5C 33.1667,76.1667 33.8333,76.8333 34.5,77.5C 33.448,77.3505 32.448,77.5172 31.5,78C 34.02,79.6971 36.3533,81.5305 38.5,83.5C 37.7611,83.369 37.0944,83.5357 36.5,84C 37.7101,85.0391 38.7101,86.2058 39.5,87.5C 39.5,87.8333 39.5,88.1667 39.5,88.5C 37.3702,86.8729 35.3702,85.0396 33.5,83C 31.5048,82.3872 29.8381,82.8872 28.5,84.5C 28.7565,82.2239 30.0898,81.0572 32.5,81C 30.7818,80.654 29.1151,80.154 27.5,79.5C 24.9722,80.4978 24.9722,81.3311 27.5,82C 26.3636,83.1451 25.3636,84.3117 24.5,85.5C 24.1667,83.5 23.8333,81.5 23.5,79.5C 24.4511,78.0813 24.7845,76.4147 24.5,74.5C 24.7947,72.2646 24.4614,70.2646 23.5,68.5C 22.5244,67.1851 21.5244,65.8518 20.5,64.5C 20.6667,64.1667 20.8333,63.8333 21,63.5C 22,64.5 23,65.5 24,66.5C 24.4983,63.1832 24.665,59.8499 24.5,56.5C 24.6636,50.8333 24.9969,50.5 25.5,55.5 Z"/></g>
<g><path style="opacity:1" fill="#d8d6e6" d="M 75.5,84.5 C 74.5254,86.7952 73.1921,88.7952 71.5,90.5C 70.8333,90.5 70.5,90.1667 70.5,89.5C 71.6664,87.834 71.6664,86.1673 70.5,84.5C 69.5481,86.0453 69.2148,87.712 69.5,89.5C 68.5967,91.6204 67.2633,91.9538 65.5,90.5C 63.2646,90.2053 61.2646,90.5386 59.5,91.5C 58.8333,91.5 58.5,91.1667 58.5,90.5C 58.5,89.5 58.5,88.5 58.5,87.5C 59.6226,81.7328 62.9559,80.0661 68.5,82.5C 69.5223,82.1445 70.189,81.4778 70.5,80.5C 73.7064,79.3367 75.3731,80.67 75.5,84.5 Z"/></g>
<g><path style="opacity:1" fill="#f8f6ef" d="M 1.5,70.5 C 2.16667,70.5 2.5,70.8333 2.5,71.5C 2.33045,73.8484 1.99712,76.1817 1.5,78.5C 1.53777,81.1871 2.53777,81.8537 4.5,80.5C 4.83333,81.3333 5.16667,82.1667 5.5,83C 4.4646,84.8377 3.4646,86.6711 2.5,88.5C 3.16863,92.1854 3.83529,95.8521 4.5,99.5C 2.03904,96.9088 0.372369,93.9088 -0.5,90.5C -0.5,86.1667 -0.5,81.8333 -0.5,77.5C 0.406658,75.3432 1.07332,73.0098 1.5,70.5 Z"/></g>
<g><path style="opacity:1" fill="#6c403a" d="M 95.5,80.5 C 95.8333,80.5 96.1667,80.5 96.5,80.5C 96.528,82.5824 95.8613,84.4157 94.5,86C 98.0527,86.5976 101.386,85.9309 104.5,84C 105.426,82.4202 106.426,81.9202 107.5,82.5C 105.985,84.5473 105.151,86.8807 105,89.5C 104.501,94.8229 104.334,100.156 104.5,105.5C 103.833,102.167 103.167,98.8333 102.5,95.5C 103.337,92.1523 103.837,88.8189 104,85.5C 100.995,87.0015 97.8286,88.0015 94.5,88.5C 94.1667,87.1667 93.8333,87.1667 93.5,88.5C 92.8333,88.5 92.1667,88.5 91.5,88.5C 93.3582,86.1169 94.6916,83.4502 95.5,80.5 Z"/></g>
<g><path style="opacity:1" fill="#362624" d="M 12.5,81.5 C 13.391,82.1098 14.391,82.4431 15.5,82.5C 16.5,83.8333 17.5,85.1667 18.5,86.5C 16.8333,85.8333 15.1667,85.1667 13.5,84.5C 12.8902,83.609 12.5569,82.609 12.5,81.5 Z"/></g>
<g><path style="opacity:1" fill="#e6c3c9" d="M 28.5,84.5 C 26.3034,87.5629 25.9701,90.8962 27.5,94.5C 25.5695,94.7706 24.2362,95.7706 23.5,97.5C 23.2367,93.3998 23.5701,89.3998 24.5,85.5C 25.3636,84.3117 26.3636,83.1451 27.5,82C 24.9722,81.3311 24.9722,80.4978 27.5,79.5C 29.1151,80.154 30.7818,80.654 32.5,81C 30.0898,81.0572 28.7565,82.2239 28.5,84.5 Z"/></g>
<g><path style="opacity:1" fill="#797797" d="M 39.5,88.5 C 38.8333,89.1667 38.1667,89.8333 37.5,90.5C 32.8333,90.5 30.5,92.8333 30.5,97.5C 29.7784,97.0825 29.2784,96.4158 29,95.5C 28.5014,91.8484 28.3347,88.1817 28.5,84.5C 29.8381,82.8872 31.5048,82.3872 33.5,83C 35.3702,85.0396 37.3702,86.8729 39.5,88.5 Z"/></g>
<g><path style="opacity:1" fill="#423a41" d="M 70.5,89.5 C 70.1667,89.5 69.8333,89.5 69.5,89.5C 69.2148,87.712 69.5481,86.0453 70.5,84.5C 71.6664,86.1673 71.6664,87.834 70.5,89.5 Z"/></g>
<g><path style="opacity:1" fill="#f1af83" d="M 90.5,75.5 C 90.3284,76.4916 90.6618,77.1583 91.5,77.5C 91.577,81.2148 91.2436,84.8815 90.5,88.5C 89.5826,88.5064 89.0826,87.5064 89,85.5C 87.4161,89.2516 84.9161,92.2516 81.5,94.5C 83.7885,91.3521 85.9552,88.0187 88,84.5C 88.8412,81.3718 89.6746,78.3718 90.5,75.5 Z"/></g>
<g><path style="opacity:1" fill="#e6a797" d="M 56.5,85.5 C 55.4477,86.5305 54.1143,87.1971 52.5,87.5C 48.1771,86.4292 43.8438,86.4292 39.5,87.5C 38.7101,86.2058 37.7101,85.0391 36.5,84C 37.0944,83.5357 37.7611,83.369 38.5,83.5C 40.7812,83.9227 42.4479,83.256 43.5,81.5C 43.8333,81.5 44.1667,81.5 44.5,81.5C 44.3505,82.552 44.5172,83.552 45,84.5C 45.6708,83.7476 46.5041,83.4142 47.5,83.5C 48.1342,84.9468 49.3009,85.6134 51,85.5C 52.0698,85.472 52.9032,85.1386 53.5,84.5C 54.793,83.158 55.6264,81.4913 56,79.5C 56.4955,81.4727 56.6621,83.4727 56.5,85.5 Z"/></g>
<g><path style="opacity:1" fill="#221210" d="M 47.5,83.5 C 49.4352,84.1495 51.4352,84.4828 53.5,84.5C 52.9032,85.1386 52.0698,85.472 51,85.5C 49.3009,85.6134 48.1342,84.9468 47.5,83.5 Z"/></g>
<g><path style="opacity:1" fill="#331e1d" d="M 44.5,81.5 C 46.0269,81.427 47.0269,82.0937 47.5,83.5C 46.5041,83.4142 45.6708,83.7476 45,84.5C 44.5172,83.552 44.3505,82.552 44.5,81.5 Z"/></g>
<g><path style="opacity:1" fill="#fad281" d="M 8.5,67.5 C 8.5,70.5 8.5,73.5 8.5,76.5C 5.31503,80.9911 6.31503,82.6578 11.5,81.5C 11.8333,81.5 12.1667,81.5 12.5,81.5C 12.5569,82.609 12.8902,83.609 13.5,84.5C 13.523,89.2094 15.1896,93.2094 18.5,96.5C 17.6971,97.4232 17.5304,98.4232 18,99.5C 27.1897,105.266 26.3563,106.933 15.5,104.5C 13.2294,102.734 11.0627,100.734 9,98.5C 8.42777,103.452 6.92777,103.785 4.5,99.5C 3.83529,95.8521 3.16863,92.1854 2.5,88.5C 3.4646,86.6711 4.4646,84.8377 5.5,83C 5.16667,82.1667 4.83333,81.3333 4.5,80.5C 2.53777,81.8537 1.53777,81.1871 1.5,78.5C 1.99712,76.1817 2.33045,73.8484 2.5,71.5C 4.24595,69.7484 6.24595,68.4151 8.5,67.5 Z"/></g>
<g><path style="opacity:1" fill="#f6a290" d="M 13.5,84.5 C 15.1667,85.1667 16.8333,85.8333 18.5,86.5C 19.7815,89.9359 19.7815,93.2693 18.5,96.5C 15.1896,93.2094 13.523,89.2094 13.5,84.5 Z"/></g>
<g><path style="opacity:1" fill="#1c1413" d="M 18.5,78.5 C 19.5,78.5 20.5,78.5 21.5,78.5C 21.8417,79.3382 22.5084,79.6716 23.5,79.5C 23.8333,81.5 24.1667,83.5 24.5,85.5C 23.5701,89.3998 23.2367,93.3998 23.5,97.5C 24.5274,99.1942 25.8608,100.527 27.5,101.5C 25.6453,101.272 24.8119,101.939 25,103.5C 26.918,104.542 28.7513,105.708 30.5,107C 28.6194,106.904 26.9527,107.071 25.5,107.5C 24.8333,107.167 24.1667,106.833 23.5,106.5C 20.4467,106.889 17.78,106.223 15.5,104.5C 26.3563,106.933 27.1897,105.266 18,99.5C 17.5304,98.4232 17.6971,97.4232 18.5,96.5C 19.7815,93.2693 19.7815,89.9359 18.5,86.5C 19.675,86.719 20.675,86.3857 21.5,85.5C 20.2122,83.2612 19.2122,80.9279 18.5,78.5 Z"/></g>
<g><path style="opacity:1" fill="#251f25" d="M 28.5,84.5 C 28.3347,88.1817 28.5014,91.8484 29,95.5C 29.2784,96.4158 29.7784,97.0825 30.5,97.5C 30.5,98.1667 30.8333,98.5 31.5,98.5C 31.5,98.8333 31.5,99.1667 31.5,99.5C 31.1667,99.5 30.8333,99.5 30.5,99.5C 28.7497,98.3406 27.7497,96.674 27.5,94.5C 25.9701,90.8962 26.3034,87.5629 28.5,84.5 Z"/></g>
<g><path style="opacity:1" fill="#f19d8e" d="M 102.5,95.5 C 102.5,97.5 102.5,99.5 102.5,101.5C 101.082,99.8133 99.7491,97.98 98.5,96C 96.5273,95.5045 94.5273,95.3379 92.5,95.5C 92.5,99.5 92.5,103.5 92.5,107.5C 91.8333,103.833 91.1667,100.167 90.5,96.5C 92.8907,94.3852 94.2241,91.7186 94.5,88.5C 97.8286,88.0015 100.995,87.0015 104,85.5C 103.837,88.8189 103.337,92.1523 102.5,95.5 Z"/></g>
<g><path style="opacity:1" fill="#c6836e" d="M 90.5,88.5 C 90.8333,88.5 91.1667,88.5 91.5,88.5C 91.5858,89.4959 91.2524,90.3292 90.5,91C 87.4469,92.5266 84.4469,94.0266 81.5,95.5C 81.5,95.1667 81.5,94.8333 81.5,94.5C 84.9161,92.2516 87.4161,89.2516 89,85.5C 89.0826,87.5064 89.5826,88.5064 90.5,88.5 Z"/></g>
<g><path style="opacity:1" fill="#171212" d="M 38.5,98.5 C 39.1495,96.5648 39.4828,94.5648 39.5,92.5C 40.2589,91.9907 40.5923,92.6573 40.5,94.5C 40.6598,96.3545 39.9931,97.6879 38.5,98.5 Z"/></g>
<g><path style="opacity:1" fill="#89271d" d="M 59.5,91.5 C 61.2646,90.5386 63.2646,90.2053 65.5,90.5C 64.8166,92.1765 63.4832,92.8432 61.5,92.5C 60.8333,92.1667 60.1667,91.8333 59.5,91.5 Z"/></g>
<g><path style="opacity:1" fill="#f5b89f" d="M 69.5,89.5 C 69.8333,89.5 70.1667,89.5 70.5,89.5C 70.5,90.1667 70.8333,90.5 71.5,90.5C 71.1412,92.371 70.1412,93.871 68.5,95C 68.7284,95.3988 69.0618,95.5654 69.5,95.5C 70.9187,96.4511 72.5853,96.7845 74.5,96.5C 72.7078,97.3091 70.7078,97.8091 68.5,98C 70.5,98.3333 72.5,98.6667 74.5,99C 72.9371,99.7589 71.9371,100.926 71.5,102.5C 69.5956,102.738 68.2623,103.738 67.5,105.5C 66.391,105.557 65.391,105.89 64.5,106.5C 57.6703,105.165 55.837,101.165 59,94.5C 59.9947,93.9341 60.828,93.2674 61.5,92.5C 63.4832,92.8432 64.8166,92.1765 65.5,90.5C 67.2633,91.9538 68.5967,91.6204 69.5,89.5 Z"/></g>
<g><path style="opacity:1" fill="#f6f3f3" d="M 27.5,94.5 C 27.7497,96.674 28.7497,98.3406 30.5,99.5C 30.9175,100.222 31.5842,100.722 32.5,101C 30.8659,101.494 29.1992,101.66 27.5,101.5C 25.8608,100.527 24.5274,99.1942 23.5,97.5C 24.2362,95.7706 25.5695,94.7706 27.5,94.5 Z"/></g>
<g><path style="opacity:1" fill="#c6c5e0" d="M 37.5,90.5 C 37.8333,91.5 38.5,92.1667 39.5,92.5C 39.4828,94.5648 39.1495,96.5648 38.5,98.5C 37.8333,98.5 37.1667,98.5 36.5,98.5C 37.2341,97.2921 37.5674,95.9587 37.5,94.5C 33.7593,93.5985 31.7593,94.9319 31.5,98.5C 30.8333,98.5 30.5,98.1667 30.5,97.5C 30.5,92.8333 32.8333,90.5 37.5,90.5 Z"/></g>
<g><path style="opacity:1" fill="#f7c5af" d="M 91.5,88.5 C 92.1667,88.5 92.8333,88.5 93.5,88.5C 91.4881,95.6737 86.8214,98.507 79.5,97C 80.4158,96.7216 81.0825,96.2216 81.5,95.5C 84.4469,94.0266 87.4469,92.5266 90.5,91C 91.2524,90.3292 91.5858,89.4959 91.5,88.5 Z"/></g>
<g><path style="opacity:1" fill="#fcdfbe" d="M 56.5,85.5 C 56.4021,87.5529 57.0687,89.2196 58.5,90.5C 58.5,91.1667 58.8333,91.5 59.5,91.5C 60.1667,91.8333 60.8333,92.1667 61.5,92.5C 60.828,93.2674 59.9947,93.9341 59,94.5C 55.837,101.165 57.6703,105.165 64.5,106.5C 61.7062,108.213 58.7062,109.546 55.5,110.5C 54.675,108.19 53.3417,106.19 51.5,104.5C 50.1013,100.235 47.7679,99.5681 44.5,102.5C 44.95,105.714 46.2834,108.381 48.5,110.5C 48.5,111.167 48.5,111.833 48.5,112.5C 45.8333,112.5 43.1667,112.5 40.5,112.5C 42.971,108.644 43.1376,104.644 41,100.5C 40.3292,99.7476 39.4959,99.4142 38.5,99.5C 38.5,99.1667 38.5,98.8333 38.5,98.5C 39.9931,97.6879 40.6598,96.3545 40.5,94.5C 40.5923,92.6573 40.2589,91.9907 39.5,92.5C 38.5,92.1667 37.8333,91.5 37.5,90.5C 38.1667,89.8333 38.8333,89.1667 39.5,88.5C 39.5,88.1667 39.5,87.8333 39.5,87.5C 43.8438,86.4292 48.1771,86.4292 52.5,87.5C 54.1143,87.1971 55.4477,86.5305 56.5,85.5 Z"/></g>
<g><path style="opacity:1" fill="#fcfcfc" d="M 126.5,94.5 C 126.833,94.5 127.167,94.5 127.5,94.5C 127.5,105.5 127.5,116.5 127.5,127.5C 123.5,127.5 119.5,127.5 115.5,127.5C 114.299,125.091 112.633,123.091 110.5,121.5C 110.262,119.596 109.262,118.262 107.5,117.5C 107.672,116.508 107.338,115.842 106.5,115.5C 106.4,112.892 107.067,110.558 108.5,108.5C 111.383,109.873 113.717,109.207 115.5,106.5C 120.556,103.777 124.223,99.7773 126.5,94.5 Z"/></g>
<g><path style="opacity:1" fill="#efedf1" d="M 36.5,98.5 C 35.609,99.1098 34.609,99.4431 33.5,99.5C 32.8333,99.5 32.1667,99.5 31.5,99.5C 31.5,99.1667 31.5,98.8333 31.5,98.5C 31.7593,94.9319 33.7593,93.5985 37.5,94.5C 37.5674,95.9587 37.2341,97.2921 36.5,98.5 Z"/></g>
<g><path style="opacity:1" fill="#3a2321" d="M 94.5,88.5 C 94.2241,91.7186 92.8907,94.3852 90.5,96.5C 88.6316,97.2632 86.9649,98.2632 85.5,99.5C 82.5,99.5 79.5,99.5 76.5,99.5C 76.1218,101.921 75.4552,104.254 74.5,106.5C 73.8333,106.833 73.1667,107.167 72.5,107.5C 72.8769,105.742 73.5435,104.075 74.5,102.5C 73.7666,101.913 72.7666,101.913 71.5,102.5C 71.9371,100.926 72.9371,99.7589 74.5,99C 72.5,98.6667 70.5,98.3333 68.5,98C 70.7078,97.8091 72.7078,97.3091 74.5,96.5C 76.861,96.3259 79.1944,95.9926 81.5,95.5C 81.0825,96.2216 80.4158,96.7216 79.5,97C 86.8214,98.507 91.4881,95.6737 93.5,88.5C 93.8333,87.1667 94.1667,87.1667 94.5,88.5 Z"/></g>
<g><path style="opacity:1" fill="#fad387" d="M 127.5,63.5 C 127.5,73.8333 127.5,84.1667 127.5,94.5C 127.167,94.5 126.833,94.5 126.5,94.5C 122.862,98.4741 119.195,102.474 115.5,106.5C 113.83,106.751 112.33,107.418 111,108.5C 110.805,107.181 110.972,105.847 111.5,104.5C 114.66,99.1795 116.993,93.5128 118.5,87.5C 121.652,87.9529 124.152,86.9529 126,84.5C 126.806,76.9503 125.973,69.6169 123.5,62.5C 123.833,62.1667 124.167,61.8333 124.5,61.5C 125.518,62.1925 126.518,62.8592 127.5,63.5 Z"/></g>
<g><path style="opacity:1" fill="#1c1c1b" d="M 126.5,94.5 C 124.223,99.7773 120.556,103.777 115.5,106.5C 119.195,102.474 122.862,98.4741 126.5,94.5 Z"/></g>
<g><path style="opacity:1" fill="#f8f6f7" d="M -0.5,100.5 C 0.833333,101.833 2.16667,103.167 3.5,104.5C 3.74973,106.674 4.74973,108.341 6.5,109.5C 8.00025,113.173 10.0002,116.506 12.5,119.5C 12.3284,120.492 12.6618,121.158 13.5,121.5C 13.5,121.833 13.5,122.167 13.5,122.5C 11.8333,122.5 10.1667,122.5 8.5,122.5C 8.5,123.5 8.5,124.5 8.5,125.5C 10.5,125.5 12.5,125.5 14.5,125.5C 15.5,125.833 16.1667,126.5 16.5,127.5C 13.5,127.5 10.5,127.5 7.5,127.5C 7.5,124.833 7.5,122.167 7.5,119.5C 4.83333,119.5 2.16667,119.5 -0.5,119.5C -0.5,113.167 -0.5,106.833 -0.5,100.5 Z"/></g>
<g><path style="opacity:1" fill="#6b1c18" d="M 36.5,98.5 C 37.1667,98.5 37.8333,98.5 38.5,98.5C 38.5,98.8333 38.5,99.1667 38.5,99.5C 37.4693,100.355 36.3026,101.022 35,101.5C 33.9701,101.164 33.4701,100.497 33.5,99.5C 34.609,99.4431 35.609,99.1098 36.5,98.5 Z"/></g>
<g><path style="opacity:1" fill="#f9a195" d="M 85.5,99.5 C 82.039,102.069 78.3723,104.403 74.5,106.5C 75.4552,104.254 76.1218,101.921 76.5,99.5C 79.5,99.5 82.5,99.5 85.5,99.5 Z"/></g>
<g><path style="opacity:1" fill="#f8c4aa" d="M 30.5,99.5 C 30.8333,99.5 31.1667,99.5 31.5,99.5C 32.1667,99.5 32.8333,99.5 33.5,99.5C 33.4701,100.497 33.9701,101.164 35,101.5C 36.3026,101.022 37.4693,100.355 38.5,99.5C 39.4959,99.4142 40.3292,99.7476 41,100.5C 43.1376,104.644 42.971,108.644 40.5,112.5C 35.6105,112.444 30.9439,111.444 26.5,109.5C 26.6716,108.508 26.3382,107.842 25.5,107.5C 26.9527,107.071 28.6194,106.904 30.5,107C 28.7513,105.708 26.918,104.542 25,103.5C 24.8119,101.939 25.6453,101.272 27.5,101.5C 29.1992,101.66 30.8659,101.494 32.5,101C 31.5842,100.722 30.9175,100.222 30.5,99.5 Z"/></g>
<g><path style="opacity:1" fill="#27282f" d="M -0.5,90.5 C 0.372369,93.9088 2.03904,96.9088 4.5,99.5C 6.92777,103.785 8.42777,103.452 9,98.5C 11.0627,100.734 13.2294,102.734 15.5,104.5C 13.8297,104.249 12.3297,103.582 11,102.5C 10.6758,104.569 9.84247,104.902 8.5,103.5C 7.7084,104.7 7.7084,106.033 8.5,107.5C 6.53045,105.353 4.69712,103.02 3,100.5C 2.80503,101.819 2.97169,103.153 3.5,104.5C 2.16667,103.167 0.833333,101.833 -0.5,100.5C -0.5,97.1667 -0.5,93.8333 -0.5,90.5 Z"/></g>
<g><path style="opacity:1" fill="#9f5d52" d="M 51.5,104.5 C 50.1851,103.524 48.8518,102.524 47.5,101.5C 47.1667,102.333 46.8333,103.167 46.5,104C 47.0329,106.226 47.6996,108.393 48.5,110.5C 46.2834,108.381 44.95,105.714 44.5,102.5C 47.7679,99.5681 50.1013,100.235 51.5,104.5 Z"/></g>
<g><path style="opacity:1" fill="#251816" d="M 71.5,102.5 C 70.7377,104.262 69.4044,105.262 67.5,105.5C 68.2623,103.738 69.5956,102.738 71.5,102.5 Z"/></g>
<g><path style="opacity:1" fill="#301f15" d="M 90.5,96.5 C 91.1667,100.167 91.8333,103.833 92.5,107.5C 92.5,108.833 92.5,110.167 92.5,111.5C 91.6873,113.261 90.6873,114.928 89.5,116.5C 90.2757,109.863 90.609,103.196 90.5,96.5 Z"/></g>
<g><path style="opacity:1" fill="#f7f7f7" d="M 15.5,104.5 C 17.78,106.223 20.4467,106.889 23.5,106.5C 24.3319,113.255 23.1652,119.589 20,125.5C 18.7225,123.253 17.2225,121.253 15.5,119.5C 14.9213,116.669 13.588,114.336 11.5,112.5C 11.2503,110.326 10.2503,108.659 8.5,107.5C 7.7084,106.033 7.7084,104.7 8.5,103.5C 9.84247,104.902 10.6758,104.569 11,102.5C 12.3297,103.582 13.8297,104.249 15.5,104.5 Z"/></g>
<g><path style="opacity:1" fill="#1b161d" d="M 3.5,104.5 C 5.25027,105.659 6.25027,107.326 6.5,109.5C 4.74973,108.341 3.74973,106.674 3.5,104.5 Z"/></g>
<g><path style="opacity:1" fill="#2b1f16" d="M 111.5,104.5 C 110.972,105.847 110.805,107.181 111,108.5C 112.33,107.418 113.83,106.751 115.5,106.5C 113.717,109.207 111.383,109.873 108.5,108.5C 109.026,106.77 110.026,105.436 111.5,104.5 Z"/></g>
<g><path style="opacity:1" fill="#e79a92" d="M 72.5,107.5 C 72.5,108.833 71.8333,109.5 70.5,109.5C 68.2192,111.428 65.5525,112.428 62.5,112.5C 62.3505,111.448 62.5172,110.448 63,109.5C 64.6667,108.267 66.1667,106.933 67.5,105.5C 69.4044,105.262 70.7377,104.262 71.5,102.5C 72.7666,101.913 73.7666,101.913 74.5,102.5C 73.5435,104.075 72.8769,105.742 72.5,107.5 Z"/></g>
<g><path style="opacity:1" fill="#4a8dc3" d="M 8.5,107.5 C 8.83333,108.833 9.16667,110.167 9.5,111.5C 9.56544,111.938 9.39877,112.272 9,112.5C 8.62325,111.058 7.78991,110.058 6.5,109.5C 6.25027,107.326 5.25027,105.659 3.5,104.5C 2.97169,103.153 2.80503,101.819 3,100.5C 4.69712,103.02 6.53045,105.353 8.5,107.5 Z"/></g>
<g><path style="opacity:1" fill="#17171e" d="M 8.5,107.5 C 10.2503,108.659 11.2503,110.326 11.5,112.5C 10.8333,112.167 10.1667,111.833 9.5,111.5C 9.16667,110.167 8.83333,108.833 8.5,107.5 Z"/></g>
<g><path style="opacity:1" fill="#f2f0e8" d="M 74.5,106.5 C 72.7867,109.86 71.1201,113.193 69.5,116.5C 64.0543,117.558 60.0543,120.558 57.5,125.5C 56.5,125.833 55.8333,126.5 55.5,127.5C 55.1667,127.5 54.8333,127.5 54.5,127.5C 55.1283,124.91 56.295,122.577 58,120.5C 62.708,117.404 66.8747,113.738 70.5,109.5C 71.8333,109.5 72.5,108.833 72.5,107.5C 73.1667,107.167 73.8333,106.833 74.5,106.5 Z"/></g>
<g><path style="opacity:1" fill="#2a2020" d="M 102.5,95.5 C 103.167,98.8333 103.833,102.167 104.5,105.5C 104.009,110.059 105.342,111.059 108.5,108.5C 107.067,110.558 106.4,112.892 106.5,115.5C 105.313,113.928 104.313,112.261 103.5,110.5C 103.037,107.518 102.704,104.518 102.5,101.5C 102.5,99.5 102.5,97.5 102.5,95.5 Z"/></g>
<g><path style="opacity:1" fill="#26354b" d="M 6.5,109.5 C 7.78991,110.058 8.62325,111.058 9,112.5C 9.39877,112.272 9.56544,111.938 9.5,111.5C 10.1667,111.833 10.8333,112.167 11.5,112.5C 13.588,114.336 14.9213,116.669 15.5,119.5C 13.7775,117.747 12.2775,115.747 11,113.5C 11.1503,115.506 11.6503,117.506 12.5,119.5C 10.0002,116.506 8.00025,113.173 6.5,109.5 Z"/></g>
<g><path style="opacity:1" fill="#140e0c" d="M 26.5,109.5 C 30.9439,111.444 35.6105,112.444 40.5,112.5C 43.1667,112.5 45.8333,112.5 48.5,112.5C 44.03,113.486 39.3633,113.819 34.5,113.5C 32.4214,113.029 30.4214,112.363 28.5,111.5C 27.5,111.167 26.8333,110.5 26.5,109.5 Z"/></g>
<g><path style="opacity:1" fill="#5d351b" d="M 93.5,112.5 C 94.4267,117.613 95.76,122.613 97.5,127.5C 97.1667,127.5 96.8333,127.5 96.5,127.5C 94.0097,122.581 93.0097,117.581 93.5,112.5 Z"/></g>
<g><path style="opacity:1" fill="#ea9992" d="M 51.5,104.5 C 53.3417,106.19 54.675,108.19 55.5,110.5C 54.7375,111.268 53.7375,111.768 52.5,112C 53.1667,112.333 53.8333,112.667 54.5,113C 52.2852,114.044 49.9519,114.71 47.5,115C 45.0163,117.744 42.0163,119.744 38.5,121C 36.2663,122.638 34.933,124.805 34.5,127.5C 33.8333,127.5 33.1667,127.5 32.5,127.5C 33.2341,126.292 33.5674,124.959 33.5,123.5C 35.4815,120.627 35.8149,117.627 34.5,114.5C 34.5,114.167 34.5,113.833 34.5,113.5C 39.3633,113.819 44.03,113.486 48.5,112.5C 48.5,111.833 48.5,111.167 48.5,110.5C 47.6996,108.393 47.0329,106.226 46.5,104C 46.8333,103.167 47.1667,102.333 47.5,101.5C 48.8518,102.524 50.1851,103.524 51.5,104.5 Z"/></g>
<g><path style="opacity:1" fill="#448bb2" d="M 15.5,119.5 C 18.5162,126.187 17.8495,126.854 13.5,121.5C 12.6618,121.158 12.3284,120.492 12.5,119.5C 11.6503,117.506 11.1503,115.506 11,113.5C 12.2775,115.747 13.7775,117.747 15.5,119.5 Z"/></g>
<g><path style="opacity:1" fill="#191415" d="M 67.5,105.5 C 66.1667,106.933 64.6667,108.267 63,109.5C 62.5172,110.448 62.3505,111.448 62.5,112.5C 65.5525,112.428 68.2192,111.428 70.5,109.5C 66.8747,113.738 62.708,117.404 58,120.5C 56.295,122.577 55.1283,124.91 54.5,127.5C 53.8333,127.5 53.1667,127.5 52.5,127.5C 53.446,125.11 54.7794,122.944 56.5,121C 55.0337,120.365 53.7003,119.531 52.5,118.5C 50.4219,121.106 49.0885,124.106 48.5,127.5C 48.1667,127.5 47.8333,127.5 47.5,127.5C 47.9542,123.851 48.9542,120.351 50.5,117C 50.1667,116.5 49.8333,116 49.5,115.5C 44.1079,118.402 43.1079,122.402 46.5,127.5C 45.8333,127.5 45.1667,127.5 44.5,127.5C 44.2447,124.984 43.4114,122.65 42,120.5C 38.6506,121.677 37.1506,124.01 37.5,127.5C 36.5,127.5 35.5,127.5 34.5,127.5C 34.933,124.805 36.2663,122.638 38.5,121C 42.0163,119.744 45.0163,117.744 47.5,115C 49.9519,114.71 52.2852,114.044 54.5,113C 53.8333,112.667 53.1667,112.333 52.5,112C 53.7375,111.768 54.7375,111.268 55.5,110.5C 58.7062,109.546 61.7062,108.213 64.5,106.5C 65.391,105.89 66.391,105.557 67.5,105.5 Z"/></g>
<g><path style="opacity:1" fill="#e29386" d="M 59.5,110.5 C 64.0424,114.913 63.0424,116.747 56.5,116C 55.4829,114.951 55.3162,113.784 56,112.5C 57.3024,111.915 58.469,111.249 59.5,110.5 Z"/></g>
<g><path style="opacity:1" fill="#f9d380" d="M 28.5,111.5 C 30.4214,112.363 32.4214,113.029 34.5,113.5C 34.5,113.833 34.5,114.167 34.5,114.5C 34.2962,117.518 33.9629,120.518 33.5,123.5C 32.3263,124.514 31.6596,125.847 31.5,127.5C 28.5,127.5 25.5,127.5 22.5,127.5C 25.8706,122.727 27.8706,117.393 28.5,111.5 Z"/></g>
<g><path style="opacity:1" fill="#623220" d="M 34.5,114.5 C 35.8149,117.627 35.4815,120.627 33.5,123.5C 33.9629,120.518 34.2962,117.518 34.5,114.5 Z"/></g>
<g><path style="opacity:1" fill="#726c80" d="M 52.5,115.5 C 54.3716,116.511 56.3716,117.345 58.5,118C 58,118.5 57.5,119 57,119.5C 54.8816,118.717 53.3816,117.384 52.5,115.5 Z"/></g>
<g><path style="opacity:1" fill="#f6f4eb" d="M 26.5,109.5 C 26.8333,110.5 27.5,111.167 28.5,111.5C 27.8706,117.393 25.8706,122.727 22.5,127.5C 21.8333,127.5 21.1667,127.5 20.5,127.5C 24.3739,122.01 25.7072,116.01 24.5,109.5C 24.9698,108.537 25.6365,108.537 26.5,109.5 Z"/></g>
<g><path style="opacity:1" fill="#666566" d="M 107.5,117.5 C 109.262,118.262 110.262,119.596 110.5,121.5C 108.738,120.738 107.738,119.404 107.5,117.5 Z"/></g>
<g><path style="opacity:1" fill="#fad482" d="M 90.5,96.5 C 90.609,103.196 90.2757,109.863 89.5,116.5C 87.691,119.139 85.3576,121.306 82.5,123C 76.9766,124.365 71.6432,125.865 66.5,127.5C 63.5,127.5 60.5,127.5 57.5,127.5C 58.5063,126.604 58.5063,125.938 57.5,125.5C 60.0543,120.558 64.0543,117.558 69.5,116.5C 71.1201,113.193 72.7867,109.86 74.5,106.5C 78.3723,104.403 82.039,102.069 85.5,99.5C 86.9649,98.2632 88.6316,97.2632 90.5,96.5 Z"/></g>
<g><path style="opacity:1" fill="#f89e93" d="M 92.5,111.5 C 93.1667,111.5 93.5,111.833 93.5,112.5C 93.0097,117.581 94.0097,122.581 96.5,127.5C 92.1667,127.5 87.8333,127.5 83.5,127.5C 83.238,126.022 83.5713,124.689 84.5,123.5C 87.3491,121.988 89.0158,119.655 89.5,116.5C 90.6873,114.928 91.6873,113.261 92.5,111.5 Z"/></g>
<g><path style="opacity:1" fill="#ec4487" d="M -0.5,119.5 C 2.16667,119.5 4.83333,119.5 7.5,119.5C 7.5,122.167 7.5,124.833 7.5,127.5C 5.16667,127.5 2.83333,127.5 0.5,127.5C 0.5,126.5 0.5,125.5 0.5,124.5C 1.67504,124.719 2.67504,124.386 3.5,123.5C 2.31116,122.571 0.977822,122.238 -0.5,122.5C -0.5,121.5 -0.5,120.5 -0.5,119.5 Z"/></g>
<g><path style="opacity:1" fill="#e7e4dc" d="M 103.5,110.5 C 104.313,112.261 105.313,113.928 106.5,115.5C 107.338,115.842 107.672,116.508 107.5,117.5C 107.738,119.404 108.738,120.738 110.5,121.5C 111.471,123.483 112.471,125.483 113.5,127.5C 112.5,127.5 111.5,127.5 110.5,127.5C 106.812,122.447 104.479,116.78 103.5,110.5 Z"/></g>
<g><path style="opacity:1" fill="#e9b8d6" d="M -0.5,122.5 C 0.977822,122.238 2.31116,122.571 3.5,123.5C 2.67504,124.386 1.67504,124.719 0.5,124.5C 0.5,125.5 0.5,126.5 0.5,127.5C 0.166667,127.5 -0.166667,127.5 -0.5,127.5C -0.5,125.833 -0.5,124.167 -0.5,122.5 Z"/></g>
<g><path style="opacity:1" fill="#afabc6" d="M 44.5,127.5 C 42.1667,127.5 39.8333,127.5 37.5,127.5C 37.1506,124.01 38.6506,121.677 42,120.5C 43.4114,122.65 44.2447,124.984 44.5,127.5 Z"/></g>
<g><path style="opacity:1" fill="#4b504f" d="M 47.5,127.5 C 47.1667,127.5 46.8333,127.5 46.5,127.5C 43.1079,122.402 44.1079,118.402 49.5,115.5C 49.8333,116 50.1667,116.5 50.5,117C 48.9542,120.351 47.9542,123.851 47.5,127.5 Z"/></g>
<g><path style="opacity:1" fill="#b2adc8" d="M 52.5,127.5 C 51.1667,127.5 49.8333,127.5 48.5,127.5C 49.0885,124.106 50.4219,121.106 52.5,118.5C 53.7003,119.531 55.0337,120.365 56.5,121C 54.7794,122.944 53.446,125.11 52.5,127.5 Z"/></g>
<g><path style="opacity:1" fill="#302e2f" d="M 110.5,121.5 C 112.633,123.091 114.299,125.091 115.5,127.5C 114.833,127.5 114.167,127.5 113.5,127.5C 112.471,125.483 111.471,123.483 110.5,121.5 Z"/></g>
<g><path style="opacity:1" fill="#2b2c33" d="M 23.5,106.5 C 24.1667,106.833 24.8333,107.167 25.5,107.5C 26.3382,107.842 26.6716,108.508 26.5,109.5C 25.6365,108.537 24.9698,108.537 24.5,109.5C 25.7072,116.01 24.3739,122.01 20.5,127.5C 19.1667,127.5 17.8333,127.5 16.5,127.5C 16.1667,126.5 15.5,125.833 14.5,125.5C 14.4431,124.391 14.1098,123.391 13.5,122.5C 13.5,122.167 13.5,121.833 13.5,121.5C 17.8495,126.854 18.5162,126.187 15.5,119.5C 17.2225,121.253 18.7225,123.253 20,125.5C 23.1652,119.589 24.3319,113.255 23.5,106.5 Z"/></g>
<g><path style="opacity:1" fill="#fcd47f" d="M 102.5,101.5 C 102.704,104.518 103.037,107.518 103.5,110.5C 104.479,116.78 106.812,122.447 110.5,127.5C 106.167,127.5 101.833,127.5 97.5,127.5C 95.76,122.613 94.4267,117.613 93.5,112.5C 93.5,111.833 93.1667,111.5 92.5,111.5C 92.5,110.167 92.5,108.833 92.5,107.5C 92.5,103.5 92.5,99.5 92.5,95.5C 94.5273,95.3379 96.5273,95.5045 98.5,96C 99.7491,97.98 101.082,99.8133 102.5,101.5 Z"/></g>
<g><path style="opacity:1" fill="#da4884" d="M 13.5,122.5 C 14.1098,123.391 14.4431,124.391 14.5,125.5C 12.5,125.5 10.5,125.5 8.5,125.5C 8.5,124.5 8.5,123.5 8.5,122.5C 10.1667,122.5 11.8333,122.5 13.5,122.5 Z"/></g>
<g><path style="opacity:1" fill="#3c241a" d="M 33.5,123.5 C 33.5674,124.959 33.2341,126.292 32.5,127.5C 32.1667,127.5 31.8333,127.5 31.5,127.5C 31.6596,125.847 32.3263,124.514 33.5,123.5 Z"/></g>
<g><path style="opacity:1" fill="#181111" d="M 89.5,116.5 C 89.0158,119.655 87.3491,121.988 84.5,123.5C 83.5713,124.689 83.238,126.022 83.5,127.5C 82.8333,127.5 82.1667,127.5 81.5,127.5C 81.6495,126.448 81.4828,125.448 81,124.5C 77.1225,125.733 73.2892,126.733 69.5,127.5C 68.5,127.5 67.5,127.5 66.5,127.5C 71.6432,125.865 76.9766,124.365 82.5,123C 85.3576,121.306 87.691,119.139 89.5,116.5 Z"/></g>
<g><path style="opacity:1" fill="#3e2817" d="M 57.5,125.5 C 58.5063,125.938 58.5063,126.604 57.5,127.5C 56.8333,127.5 56.1667,127.5 55.5,127.5C 55.8333,126.5 56.5,125.833 57.5,125.5 Z"/></g>
<g><path style="opacity:1" fill="#757387" d="M 81.5,127.5 C 77.5,127.5 73.5,127.5 69.5,127.5C 73.2892,126.733 77.1225,125.733 81,124.5C 81.4828,125.448 81.6495,126.448 81.5,127.5 Z"/></g>
</svg>
